<?xml version="1.0" encoding="UTF-8" standalone="no"?>
<!DOCTYPE svg PUBLIC "-//W3C//DTD SVG 1.1//EN" "http://www.w3.org/Graphics/SVG/1.1/DTD/svg11.dtd">
<!-- 由 Microsoft Visio, SVG Export 生成 FlowchartOfIBSA.svg 页-1 -->
<svg xmlns="http://www.w3.org/2000/svg" xmlns:xlink="http://www.w3.org/1999/xlink" xmlns:ev="http://www.w3.org/2001/xml-events"
		xmlns:v="http://schemas.microsoft.com/visio/2003/SVGExtensions/" width="9.02617in" height="9.89231in"
		viewBox="0 0 649.884 712.246" xml:space="preserve" color-interpolation-filters="sRGB" class="st28">
	<v:documentProperties v:langID="2052" v:metric="true" v:viewMarkup="false"/>

	<style type="text/css">
	<![CDATA[
		.st1 {fill:#ffffff;stroke:none;stroke-linecap:round;stroke-linejoin:round;stroke-width:0.75}
		.st2 {marker-end:url(#mrkr4-8);stroke:#c00000;stroke-linecap:round;stroke-linejoin:round;stroke-width:0.75}
		.st3 {fill:#c00000;fill-opacity:1;stroke:#c00000;stroke-opacity:1;stroke-width:0.22935779816514}
		.st4 {marker-start:url(#mrkr4-14);stroke:#c00000;stroke-linecap:round;stroke-linejoin:round;stroke-width:0.75}
		.st5 {marker-end:url(#mrkr4-20);stroke:#000000;stroke-linecap:round;stroke-linejoin:round;stroke-width:0.75}
		.st6 {fill:#000000;fill-opacity:1;stroke:#000000;stroke-opacity:1;stroke-width:0.22935779816514}
		.st7 {visibility:visible}
		.st8 {fill:#000000;fill-opacity:0.4;filter:url(#filter_2.6666667461395);stroke:#000000;stroke-linecap:round;stroke-linejoin:round;stroke-opacity:0.4}
		.st9 {fill:#dbeef3;stroke:#000000;stroke-linecap:round;stroke-linejoin:round;stroke-width:0.75}
		.st10 {fill:#000000;font-family:Times New Roman;font-size:1.33333em}
		.st11 {font-size:1em}
		.st12 {font-family:Cambria Math;font-size:1em;font-style:italic}
		.st13 {fill:#fbd7bb;stroke:#000000;stroke-linecap:round;stroke-linejoin:round;stroke-width:0.75}
		.st14 {fill:#f9c499;stroke:#000000;stroke-linecap:round;stroke-linejoin:round;stroke-width:0.24}
		.st15 {fill:none;stroke:none;stroke-linecap:round;stroke-linejoin:round;stroke-width:0.75}
		.st16 {fill:#f9c499;stroke:none;stroke-linecap:round;stroke-linejoin:round;stroke-width:0.75}
		.st17 {marker-end:url(#mrkr4-180);stroke:#000000;stroke-linecap:round;stroke-linejoin:round;stroke-width:0.75}
		.st18 {marker-end:url(#mrkr5-192);stroke:#000000;stroke-linecap:round;stroke-linejoin:round;stroke-width:0.75}
		.st19 {marker-start:url(#mrkr4-213);stroke:#000000;stroke-linecap:round;stroke-linejoin:round;stroke-width:0.75}
		.st20 {marker-end:url(#mrkr4-244);stroke:#ff0000;stroke-linecap:round;stroke-linejoin:round;stroke-width:0.75}
		.st21 {fill:#ff0000;fill-opacity:1;stroke:#ff0000;stroke-opacity:1;stroke-width:0.22935779816514}
		.st22 {stroke:#c00000;stroke-linecap:round;stroke-linejoin:round;stroke-width:0.75}
		.st23 {marker-end:url(#mrkr4-253);stroke:#c00000;stroke-linecap:round;stroke-linejoin:round;stroke-width:0.75}
		.st24 {fill:#f2dcda;stroke:none;stroke-linecap:round;stroke-linejoin:round;stroke-width:0.75}
		.st25 {stroke:#000000;stroke-linecap:round;stroke-linejoin:round;stroke-width:0.75}
		.st26 {fill:none;stroke:#000000;stroke-dasharray:21,15,0,15,0,15;stroke-linecap:round;stroke-linejoin:round;stroke-width:3}
		.st27 {fill:#000000;font-family:Times New Roman;font-size:1.5em;font-weight:bold}
		.st28 {fill:none;fill-rule:evenodd;font-size:12px;overflow:visible;stroke-linecap:square;stroke-miterlimit:3}
	]]>
	</style>

	<defs id="Markers">
		<g id="lend4">
			<path d="M 2 1 L 0 0 L 2 -1 L 2 1 " style="stroke:none"/>
		</g>
		<marker id="mrkr4-8" class="st3" v:arrowType="4" v:arrowSize="2" v:setback="0" refX="-0" orient="auto"
				markerUnits="strokeWidth" overflow="visible">
			<use xlink:href="#lend4" transform="scale(-4.36,-4.36) "/>
		</marker>
		<marker id="mrkr4-14" class="st3" v:arrowType="4" v:arrowSize="2" v:setback="8.24" refX="8.24" orient="auto"
				markerUnits="strokeWidth" overflow="visible">
			<use xlink:href="#lend4" transform="scale(4.36) "/>
		</marker>
		<marker id="mrkr4-20" class="st6" v:arrowType="4" v:arrowSize="2" v:setback="0" refX="-0" orient="auto"
				markerUnits="strokeWidth" overflow="visible">
			<use xlink:href="#lend4" transform="scale(-4.36,-4.36) "/>
		</marker>
		<marker id="mrkr4-180" class="st6" v:arrowType="4" v:arrowSize="2" v:setback="8.72" refX="-8.72" orient="auto"
				markerUnits="strokeWidth" overflow="visible">
			<use xlink:href="#lend4" transform="scale(-4.36,-4.36) "/>
		</marker>
		<g id="lend5">
			<path d="M 2 1 L 0 0 L 1.98117 -0.993387 C 1.67173 -0.364515 1.67301 0.372641 1.98465 1.00043 " style="stroke:none"/>
		</g>
		<marker id="mrkr5-192" class="st6" v:arrowType="5" v:arrowSize="2" v:setback="7.63" refX="-7.63" orient="auto"
				markerUnits="strokeWidth" overflow="visible">
			<use xlink:href="#lend5" transform="scale(-4.36,-4.36) "/>
		</marker>
		<marker id="mrkr4-213" class="st6" v:arrowType="4" v:arrowSize="2" v:setback="8.24" refX="8.24" orient="auto"
				markerUnits="strokeWidth" overflow="visible">
			<use xlink:href="#lend4" transform="scale(4.36) "/>
		</marker>
		<marker id="mrkr4-244" class="st21" v:arrowType="4" v:arrowSize="2" v:setback="8.72" refX="-8.72" orient="auto"
				markerUnits="strokeWidth" overflow="visible">
			<use xlink:href="#lend4" transform="scale(-4.36,-4.36) "/>
		</marker>
		<marker id="mrkr4-253" class="st3" v:arrowType="4" v:arrowSize="2" v:setback="8.72" refX="-8.72" orient="auto"
				markerUnits="strokeWidth" overflow="visible">
			<use xlink:href="#lend4" transform="scale(-4.36,-4.36) "/>
		</marker>
	</defs>
	<defs id="Filters">
		<filter id="filter_2.6666667461395">
			<feGaussianBlur stdDeviation="2.6666667461395"/>
		</filter>
	</defs>
	<g v:mID="0" v:index="1" v:groupContext="foregroundPage">
		<title>页-1</title>
		<v:pageProperties v:drawingScale="0.0393701" v:pageScale="0.0393701" v:drawingUnits="24" v:shadowOffsetX="8.50394"
				v:shadowOffsetY="-8.50394"/>
		<g id="shape1165-1" v:mID="1165" v:groupContext="shape" transform="translate(0.375,-0.375)">
			<title>工作表.1165</title>
			<rect x="0" y="0.749986" width="646.299" height="711.496" class="st1"/>
		</g>
		<g id="shape1166-3" v:mID="1166" v:groupContext="shape" transform="translate(323.099,-116.595)">
			<title>工作表.1166</title>
			<path d="M0 712.25 L0 698.98 L198.85 698.9 L198.85 680.67 L198.85 676.03" class="st2"/>
		</g>
		<g id="shape1167-9" v:mID="1167" v:groupContext="shape" transform="translate(225.487,-459.588)">
			<title>工作表.1167</title>
			<path d="M23.27 516.66 L22.91 516.66 L0 516.66 L0 712.25 L31.08 711.58" class="st4"/>
		</g>
		<g id="shape1168-15" v:mID="1168" v:groupContext="shape" transform="translate(17.3829,-10.2962)">
			<title>工作表.1168</title>
			<path d="M614.88 166.58 L614.88 712.25 L0 712.25 L0 346.55 L33.1 346.55 L38.11 346.55" class="st5"/>
		</g>
		<g id="shape1169-21" v:mID="1169" v:groupContext="shape" transform="translate(54.9703,-151.954)">
			<title>工作表.1169</title>
			<desc>Update s, OldX and Calculate p by Eq. (10) (12) (11)</desc>
			<v:textBlock v:margins="rect(4,4,4,4)" v:tabSpace="42.5197"/>
			<v:textRect cx="70.1291" cy="680.319" width="140.26" height="63.8545"/>
			<g id="shadow1169-22" v:groupContext="shadow" v:shadowOffsetX="-8.48528" v:shadowOffsetY="-8.48528" v:shadowType="1"
					transform="matrix(1,0,0,1,-8.48528,8.48528)" class="st7">
				<rect x="0" y="648.392" width="140.258" height="63.8545" rx="5.66929" ry="5.66929" class="st8"/>
			</g>
			<rect x="0" y="648.392" width="140.258" height="63.8545" rx="5.66929" ry="5.66929" class="st9"/>
			<text x="4.59" y="665.92" class="st10" v:langID="2052"><v:paragraph v:horizAlign="1"/><v:tabList/>Update s, OldX  and <tspan
						x="11.04" dy="1.2em" class="st11">Calculate p by Eq. </tspan><tspan x="26.14" dy="1.2em" class="st11">(10) (12) (11)</tspan></text>		</g>
		<g id="shape1170-29" v:mID="1170" v:groupContext="shape" transform="translate(252.658,-623.251)">
			<title>工作表.1170</title>
			<desc>Update Mutant by Eq. (16)</desc>
			<v:textBlock v:margins="rect(4,4,4,4)" v:tabSpace="42.5197"/>
			<v:textRect cx="70.1291" cy="680.319" width="140.26" height="63.8545"/>
			<g id="shadow1170-30" v:groupContext="shadow" v:shadowOffsetX="-8.48528" v:shadowOffsetY="-8.48528" v:shadowType="1"
					transform="matrix(1,0,0,1,-8.48528,8.48528)" class="st7">
				<rect x="0" y="648.392" width="140.258" height="63.8545" rx="5.66929" ry="5.66929" class="st8"/>
			</g>
			<rect x="0" y="648.392" width="140.258" height="63.8545" rx="5.66929" ry="5.66929" class="st9"/>
			<text x="11.92" y="675.52" class="st10" v:langID="2052"><v:paragraph v:horizAlign="1"/><v:tabList/>Update Mutant by <tspan
						x="43.91" dy="1.2em" class="st11">Eq. (16)</tspan></text>		</g>
		<g id="shape1171-36" v:mID="1171" v:groupContext="shape" transform="translate(252.658,-538.212)">
			<title>工作表.1171</title>
			<desc>Update map, Mutant by Eq. (6) (15)</desc>
			<v:textBlock v:margins="rect(4,4,4,4)" v:tabSpace="42.5197"/>
			<v:textRect cx="70.1291" cy="680.319" width="140.26" height="63.8545"/>
			<g id="shadow1171-37" v:groupContext="shadow" v:shadowOffsetX="-8.48528" v:shadowOffsetY="-8.48528" v:shadowType="1"
					transform="matrix(1,0,0,1,-8.48528,8.48528)" class="st7">
				<rect x="0" y="648.392" width="140.258" height="63.8545" rx="5.66929" ry="5.66929" class="st8"/>
			</g>
			<rect x="0" y="648.392" width="140.258" height="63.8545" rx="5.66929" ry="5.66929" class="st9"/>
			<text x="4.14" y="675.52" class="st10" v:langID="2052"><v:paragraph v:horizAlign="1"/><v:tabList/>Update map, Mutant <tspan
						x="22.59" dy="1.2em" class="st11">by Eq. (6) (15)</tspan></text>		</g>
		<g id="shape1172-43" v:mID="1172" v:groupContext="shape" transform="translate(451.821,-244.154)">
			<title>工作表.1172</title>
			<desc>Calculate fitness of Mutant</desc>
			<v:textBlock v:margins="rect(4,4,4,4)" v:tabSpace="42.5197"/>
			<v:textRect cx="70.1291" cy="680.319" width="140.26" height="63.8545"/>
			<g id="shadow1172-44" v:groupContext="shadow" v:shadowOffsetX="-8.48528" v:shadowOffsetY="-8.48528" v:shadowType="1"
					transform="matrix(1,0,0,1,-8.48528,8.48528)" class="st7">
				<rect x="0" y="648.392" width="140.258" height="63.8545" rx="5.66929" ry="5.66929" class="st8"/>
			</g>
			<rect x="0" y="648.392" width="140.258" height="63.8545" rx="5.66929" ry="5.66929" class="st9"/>
			<text x="8.37" y="675.52" class="st10" v:langID="2052"><v:paragraph v:horizAlign="1"/><v:tabList/>Calculate fitness of <tspan
						x="47.02" dy="1.2em" class="st11">Mutant</tspan></text>		</g>
		<g id="shape1173-50" v:mID="1173" v:groupContext="shape" transform="translate(54.9703,-442.58)">
			<title>工作表.1173</title>
			<desc>Initialize: X, OldX, BestFitness, PreBestFitness, BestX, map,...</desc>
			<v:textBlock v:margins="rect(4,4,4,4)" v:tabSpace="42.5197"/>
			<v:textRect cx="70.1291" cy="673.232" width="140.26" height="78.0277"/>
			<g id="shadow1173-51" v:groupContext="shadow" v:shadowOffsetX="-8.48528" v:shadowOffsetY="-8.48528" v:shadowType="1"
					transform="matrix(1,0,0,1,-8.48528,8.48528)" class="st7">
				<rect x="0" y="634.218" width="140.258" height="78.0277" rx="5.66929" ry="5.66929" class="st8"/>
			</g>
			<rect x="0" y="634.218" width="140.258" height="78.0277" rx="5.66929" ry="5.66929" class="st9"/>
			<text x="7.92" y="649.23" class="st10" v:langID="2052"><v:paragraph v:horizAlign="1"/><v:tabList/>Initialize: X, OldX, <tspan
						x="31.23" dy="1.2em" class="st11">BestFitness, </tspan><tspan x="20.57" dy="1.2em" class="st11">PreBestFitness, </tspan><tspan
						x="8.8" dy="1.2em" class="st11">BestX, map, s, flag</tspan></text>		</g>
		<g id="shape1174-59" v:mID="1174" v:groupContext="shape" transform="translate(54.9703,-548.804)">
			<title>工作表.1174</title>
			<desc>Input: N, Dim, Max_FEs, Lb, Ub, ObjFun</desc>
			<v:textBlock v:margins="rect(4,4,4,4)" v:tabSpace="42.5197"/>
			<v:textRect cx="70.1291" cy="680.319" width="140.26" height="63.8545"/>
			<g id="shadow1174-60" v:groupContext="shadow" v:shadowOffsetX="-8.48528" v:shadowOffsetY="-8.48528" v:shadowType="1"
					transform="matrix(1,0,0,1,-8.48528,8.48528)" class="st7">
				<rect x="0" y="648.392" width="140.258" height="63.8545" rx="5.66929" ry="5.66929" class="st8"/>
			</g>
			<rect x="0" y="648.392" width="140.258" height="63.8545" rx="5.66929" ry="5.66929" class="st9"/>
			<text x="24.36" y="665.85" class="st10" v:langID="2052"><v:paragraph v:horizAlign="1"/><v:tabList/>Input: <tspan
						class="st12">N, Dim, </tspan><tspan x="13.86" dy="1.205em" class="st12">Max_FEs, Lb, Ub, </tspan><tspan
						x="45.22" dy="1.214em" class="st12">ObjFun </tspan> </text>		</g>
		<g id="shape1175-68" v:mID="1175" v:groupContext="shape" transform="translate(247.525,-336.206)">
			<title>工作表.1175</title>
			<desc>Check if i &#60; N</desc>
			<v:textBlock v:margins="rect(4,4,4,4)" v:tabSpace="42.5197"/>
			<v:textRect cx="76" cy="680.319" width="152" height="63.8545"/>
			<g id="shadow1175-69" v:groupContext="shadow" v:shadowOffsetX="-8.48528" v:shadowOffsetY="-8.48528" v:shadowType="1"
					transform="matrix(1,0,0,1,-8.48528,8.48528)" class="st7">
				<path d="M25 648.39 L0 679.65 L25.95 712.25 L125.89 712.25 L152 680.99 L127.87 648.39 L25 648.39 Z" class="st8"/>
			</g>
			<path d="M25 648.39 L0 679.65 L25.95 712.25 L125.89 712.25 L152 680.99 L127.87 648.39 L25 648.39 Z" class="st13"/>
			<text x="48.68" y="675.52" class="st10" v:langID="2052"><v:paragraph v:horizAlign="1"/><v:tabList/>Check if <v:newlineChar/><tspan
						x="58.82" dy="1.2em" class="st12">i &#60; N</tspan></text>		</g>
		<g id="shape1176-75" v:mID="1176" v:groupContext="shape" transform="translate(54.9703,-254.284)">
			<title>工作表.1176</title>
			<desc>Update BestFitness, PreBestFitness, BestX, BestX_idx</desc>
			<v:textBlock v:margins="rect(4,4,4,4)" v:tabSpace="42.5197"/>
			<v:textRect cx="70.1291" cy="680.319" width="140.26" height="63.8545"/>
			<g id="shadow1176-76" v:groupContext="shadow" v:shadowOffsetX="-8.48528" v:shadowOffsetY="-8.48528" v:shadowType="1"
					transform="matrix(1,0,0,1,-8.48528,8.48528)" class="st7">
				<rect x="0" y="648.392" width="140.258" height="63.8545" rx="5.66929" ry="5.66929" class="st8"/>
			</g>
			<rect x="0" y="648.392" width="140.258" height="63.8545" rx="5.66929" ry="5.66929" class="st9"/>
			<text x="6.13" y="665.92" class="st10" v:langID="2052"><v:paragraph v:horizAlign="1"/><v:tabList/>Update BestFitness, <tspan
						x="20.57" dy="1.2em" class="st11">PreBestFitness, </tspan><tspan x="11.91" dy="1.2em" class="st11">BestX, BestX_idx</tspan></text>		</g>
		<g id="shape1177-83" v:mID="1177" v:groupContext="shape" transform="translate(445.95,-52.7409)">
			<title>工作表.1177</title>
			<desc>Update map by Eq. (7) and Mutant by Eq. (5) (8)</desc>
			<v:textBlock v:margins="rect(4,4,4,4)" v:tabSpace="42.5197"/>
			<v:textRect cx="76" cy="680.319" width="152" height="63.8545"/>
			<g id="shadow1177-84" v:groupContext="shadow" v:shadowOffsetX="-8.48528" v:shadowOffsetY="-8.48528" v:shadowType="1"
					transform="matrix(1,0,0,1,-8.48528,8.48528)" class="st7">
				<rect x="0" y="648.392" width="152" height="63.8545" rx="5.66929" ry="5.66929" class="st8"/>
			</g>
			<rect x="0" y="648.392" width="152" height="63.8545" rx="5.66929" ry="5.66929" class="st9"/>
			<text x="14.24" y="665.92" class="st10" v:langID="2052"><v:paragraph v:horizAlign="1"/><v:tabList/>Update map by Eq. <tspan
						x="5.12" dy="1.2em" class="st11">(7) and Mutant by Eq. </tspan><tspan x="55.34" dy="1.2em" class="st11">(5) (8)</tspan></text>		</g>
		<g id="shape1178-91" v:mID="1178" v:groupContext="shape" transform="translate(247.525,-151.954)">
			<title>工作表.1178</title>
			<desc>Check if p &#62; rand</desc>
			<v:textBlock v:margins="rect(4,4,4,4)" v:tabSpace="42.5197"/>
			<v:textRect cx="76" cy="680.319" width="152" height="63.8545"/>
			<g id="shadow1178-92" v:groupContext="shadow" v:shadowOffsetX="-8.48528" v:shadowOffsetY="-8.48528" v:shadowType="1"
					transform="matrix(1,0,0,1,-8.48528,8.48528)" class="st7">
				<path d="M25 648.39 L0 679.65 L25.95 712.25 L125.89 712.25 L152 680.99 L127.87 648.39 L25 648.39 Z" class="st8"/>
			</g>
			<path d="M25 648.39 L0 679.65 L25.95 712.25 L125.89 712.25 L152 680.99 L127.87 648.39 L25 648.39 Z" class="st13"/>
			<text x="48.68" y="675.52" class="st10" v:langID="2052"><v:paragraph v:horizAlign="1"/><v:tabList/>Check if <v:newlineChar/><tspan
						x="45.92" dy="1.2em" class="st12">p &#62; rand</tspan></text>		</g>
		<g id="shape1179-98" v:mID="1179" v:groupContext="shape" transform="translate(54.9703,-52.7409)">
			<title>工作表.1179</title>
			<desc>Update flag by Eq. (13)</desc>
			<v:textBlock v:margins="rect(4,4,4,4)" v:tabSpace="42.5197"/>
			<v:textRect cx="70.1291" cy="680.319" width="140.26" height="63.8545"/>
			<g id="shadow1179-99" v:groupContext="shadow" v:shadowOffsetX="-8.48528" v:shadowOffsetY="-8.48528" v:shadowType="1"
					transform="matrix(1,0,0,1,-8.48528,8.48528)" class="st7">
				<rect x="0" y="648.392" width="140.258" height="63.8545" rx="5.66929" ry="5.66929" class="st8"/>
			</g>
			<rect x="0" y="648.392" width="140.258" height="63.8545" rx="5.66929" ry="5.66929" class="st9"/>
			<text x="9.7" y="675.52" class="st10" v:langID="2052"><v:paragraph v:horizAlign="1"/><v:tabList/>Update flag by Eq. <tspan
						x="56.8" dy="1.2em" class="st11">(13)</tspan></text>		</g>
		<g id="shape1180-105" v:mID="1180" v:groupContext="shape" transform="translate(247.525,-52.7409)">
			<title>工作表.1180</title>
			<desc>Check if i &#60; N</desc>
			<v:textBlock v:margins="rect(4,4,4,4)" v:tabSpace="42.5197"/>
			<v:textRect cx="76" cy="680.319" width="152" height="63.8545"/>
			<g id="shadow1180-106" v:groupContext="shadow" v:shadowOffsetX="-8.48528" v:shadowOffsetY="-8.48528" v:shadowType="1"
					transform="matrix(1,0,0,1,-8.48528,8.48528)" class="st7">
				<path d="M25 648.39 L0 679.65 L25.95 712.25 L125.89 712.25 L152 680.99 L127.87 648.39 L25 648.39 Z" class="st8"/>
			</g>
			<path d="M25 648.39 L0 679.65 L25.95 712.25 L125.89 712.25 L152 680.99 L127.87 648.39 L25 648.39 Z" class="st13"/>
			<text x="48.68" y="675.52" class="st10" v:langID="2052"><v:paragraph v:horizAlign="1"/><v:tabList/>Check if <v:newlineChar/><tspan
						x="58.82" dy="1.2em" class="st12">i &#60; N</tspan></text>		</g>
		<g id="shape1181-112" v:mID="1181" v:groupContext="shape" transform="translate(54.9703,-346.402)">
			<title>工作表.1181</title>
			<desc>Calculate and sort fitness of X</desc>
			<v:textBlock v:margins="rect(4,4,4,4)" v:tabSpace="42.5197"/>
			<v:textRect cx="70.1291" cy="680.319" width="140.26" height="63.8545"/>
			<g id="shadow1181-113" v:groupContext="shadow" v:shadowOffsetX="-8.48528" v:shadowOffsetY="-8.48528" v:shadowType="1"
					transform="matrix(1,0,0,1,-8.48528,8.48528)" class="st7">
				<rect x="0" y="648.392" width="140.258" height="63.8545" rx="5.66929" ry="5.66929" class="st8"/>
			</g>
			<rect x="0" y="648.392" width="140.258" height="63.8545" rx="5.66929" ry="5.66929" class="st9"/>
			<text x="12.37" y="675.52" class="st10" v:langID="2052"><v:paragraph v:horizAlign="1"/><v:tabList/>Calculate and sort <tspan
						x="32.8" dy="1.2em" class="st11">fitness of X</tspan></text>		</g>
		<g id="shape1182-119" v:mID="1182" v:groupContext="shape" transform="translate(253.396,-250.495)">
			<title>工作表.1182</title>
			<desc>Update flag, m by Eq. (13) (14)</desc>
			<v:textBlock v:margins="rect(4,4,4,4)" v:tabSpace="42.5197"/>
			<v:textRect cx="70.1291" cy="680.319" width="140.26" height="63.8545"/>
			<g id="shadow1182-120" v:groupContext="shadow" v:shadowOffsetX="-8.48528" v:shadowOffsetY="-8.48528" v:shadowType="1"
					transform="matrix(1,0,0,1,-8.48528,8.48528)" class="st7">
				<rect x="0" y="648.392" width="140.258" height="63.8545" rx="5.66929" ry="5.66929" class="st8"/>
			</g>
			<rect x="0" y="648.392" width="140.258" height="63.8545" rx="5.66929" ry="5.66929" class="st9"/>
			<text x="12.37" y="675.52" class="st10" v:langID="2052"><v:paragraph v:horizAlign="1"/><v:tabList/>Update flag, m by <tspan
						x="28.59" dy="1.2em" class="st11">Eq. (13) (14)</tspan></text>		</g>
		<g id="shape1183-126" v:mID="1183" v:groupContext="shape" transform="translate(-151.408,75.8733) rotate(-90)">
			<title>圆角矩形.349</title>
			<v:userDefs>
				<v:ud v:nameU="WatchCH1" v:val="VT0(0.19685039):1"/>
				<v:ud v:nameU="MaxRoundess" v:val="VT0(0.39370078740157):1"/>
				<v:ud v:nameU="visVersion" v:val="VT0(15):26"/>
				<v:ud v:nameU="MaxRoundess" v:prompt="" v:val="VT0(0.26118649628098):1"/>
			</v:userDefs>
			<g id="shadow1183-127" v:groupContext="shadow" v:shadowOffsetX="-8.48528" v:shadowOffsetY="-8.48528" v:shadowType="1"
					transform="matrix(1,0,0,1,-8.48528,-8.48528)" class="st7">
				<path d="M0 698.07 L0 648.64 A18.8054 14.1732 0 0 1 37.61 648.64 L37.61 698.07 A18.8054 14.1732 0 1 1 0 698.07 Z"
						class="st8"/>
			</g>
			<path d="M0 698.07 L0 648.64 A18.8054 14.1732 0 0 1 37.61 648.64 L37.61 698.07 A18.8054 14.1732 0 1 1 0 698.07 Z"
					class="st14"/>
		</g>
		<g id="shape1184-131" v:mID="1184" v:groupContext="shape" transform="translate(491.247,-645.178)">
			<title>工作表.1184</title>
			<desc>End</desc>
			<v:textBlock v:margins="rect(4,4,4,4)" v:tabSpace="42.5197"/>
			<v:textRect cx="30.7024" cy="702.246" width="61.41" height="20"/>
			<rect x="0" y="692.246" width="61.4047" height="20" class="st15"/>
			<text x="17.82" y="707.05" class="st10" v:langID="2052"><v:paragraph v:horizAlign="1"/><v:tabList/>End</text>		</g>
		<g id="shape1185-134" v:mID="1185" v:groupContext="shape" transform="translate(-548.259,75.8733) rotate(-90)">
			<title>圆角矩形.469</title>
			<v:userDefs>
				<v:ud v:nameU="WatchCH1" v:val="VT0(0.19685039):1"/>
				<v:ud v:nameU="MaxRoundess" v:val="VT0(0.39370078740157):1"/>
				<v:ud v:nameU="visVersion" v:val="VT0(15):26"/>
				<v:ud v:nameU="MaxRoundess" v:prompt="" v:val="VT0(0.26118649628098):1"/>
			</v:userDefs>
			<g id="shadow1185-135" v:groupContext="shadow" v:shadowOffsetX="-8.48528" v:shadowOffsetY="-8.48528" v:shadowType="1"
					transform="matrix(1,0,0,1,-8.48528,-8.48528)" class="st7">
				<path d="M0 698.07 L0 648.64 A18.8054 14.1732 0 0 1 37.61 648.64 L37.61 698.07 A18.8054 14.1732 0 1 1 0 698.07 Z"
						class="st8"/>
			</g>
			<path d="M0 698.07 L0 648.64 A18.8054 14.1732 0 0 1 37.61 648.64 L37.61 698.07 A18.8054 14.1732 0 1 1 0 698.07 Z"
					class="st14"/>
		</g>
		<g id="shape1186-139" v:mID="1186" v:groupContext="shape" transform="translate(97.0589,-645.178)">
			<title>工作表.1186</title>
			<desc>Start</desc>
			<v:textBlock v:margins="rect(4,4,4,4)" v:tabSpace="42.5197"/>
			<v:textRect cx="25.7795" cy="702.246" width="51.56" height="20"/>
			<rect x="0" y="692.246" width="51.5589" height="20" class="st16"/>
			<text x="10.67" y="707.05" class="st10" v:langID="2052"><v:paragraph v:horizAlign="1"/><v:tabList/>Start</text>		</g>
		<g id="shape1187-142" v:mID="1187" v:groupContext="shape" transform="translate(451.821,-343.367)">
			<title>工作表.1187</title>
			<desc>Update X by Eq. (9)</desc>
			<v:textBlock v:margins="rect(4,4,4,4)" v:tabSpace="42.5197"/>
			<v:textRect cx="70.1291" cy="680.319" width="140.26" height="63.8545"/>
			<g id="shadow1187-143" v:groupContext="shadow" v:shadowOffsetX="-8.48528" v:shadowOffsetY="-8.48528" v:shadowType="1"
					transform="matrix(1,0,0,1,-8.48528,8.48528)" class="st7">
				<rect x="0" y="648.392" width="140.258" height="63.8545" rx="5.66929" ry="5.66929" class="st8"/>
			</g>
			<rect x="0" y="648.392" width="140.258" height="63.8545" rx="5.66929" ry="5.66929" class="st9"/>
			<text x="5.04" y="685.12" class="st10" v:langID="2052"><v:paragraph v:horizAlign="1"/><v:tabList/>Update X by Eq. (9)</text>		</g>
		<g id="shape1188-148" v:mID="1188" v:groupContext="shape" transform="translate(451.821,-442.58)">
			<title>工作表.1188</title>
			<desc>t = t + 1</desc>
			<v:textBlock v:margins="rect(4,4,4,4)" v:tabSpace="42.5197"/>
			<v:textRect cx="70.1291" cy="680.319" width="140.26" height="63.8545"/>
			<g id="shadow1188-149" v:groupContext="shadow" v:shadowOffsetX="-8.48528" v:shadowOffsetY="-8.48528" v:shadowType="1"
					transform="matrix(1,0,0,1,-8.48528,8.48528)" class="st7">
				<rect x="0" y="648.392" width="140.258" height="63.8545" rx="5.66929" ry="5.66929" class="st8"/>
			</g>
			<rect x="0" y="648.392" width="140.258" height="63.8545" rx="5.66929" ry="5.66929" class="st9"/>
			<text x="44.66" y="685.12" class="st10" v:langID="2052"><v:paragraph v:horizAlign="1"/><v:tabList/>t = t + 1</text>		</g>
		<g id="shape1189-154" v:mID="1189" v:groupContext="shape" transform="translate(247.525,-435.418)">
			<title>工作表.1189</title>
			<desc>Check if i ~= BestX_idx</desc>
			<v:textBlock v:margins="rect(4,4,4,4)" v:tabSpace="42.5197"/>
			<v:textRect cx="76" cy="680.319" width="152" height="63.8545"/>
			<g id="shadow1189-155" v:groupContext="shadow" v:shadowOffsetX="-8.48528" v:shadowOffsetY="-8.48528" v:shadowType="1"
					transform="matrix(1,0,0,1,-8.48528,8.48528)" class="st7">
				<path d="M25 648.39 L0 679.65 L25.95 712.25 L125.89 712.25 L152 680.99 L127.87 648.39 L25 648.39 Z" class="st8"/>
			</g>
			<path d="M25 648.39 L0 679.65 L25.95 712.25 L125.89 712.25 L152 680.99 L127.87 648.39 L25 648.39 Z" class="st13"/>
			<text x="48.68" y="675.52" class="st10" v:langID="2052"><v:paragraph v:horizAlign="1"/><v:tabList/>Check if <v:newlineChar/><tspan
						x="25.58" dy="1.2em" class="st12">i ~= BestX_idx</tspan></text>		</g>
		<g id="shape1190-161" v:mID="1190" v:groupContext="shape" transform="translate(445.95,-538.212)">
			<title>工作表.1190</title>
			<desc>Check if t &#60; Max_FEs</desc>
			<v:textBlock v:margins="rect(4,4,4,4)" v:tabSpace="42.5197"/>
			<v:textRect cx="76" cy="680.319" width="152" height="63.8545"/>
			<g id="shadow1190-162" v:groupContext="shadow" v:shadowOffsetX="-8.48528" v:shadowOffsetY="-8.48528" v:shadowType="1"
					transform="matrix(1,0,0,1,-8.48528,8.48528)" class="st7">
				<path d="M25 648.39 L0 679.65 L25.95 712.25 L125.89 712.25 L152 680.99 L127.87 648.39 L25 648.39 Z" class="st8"/>
			</g>
			<path d="M25 648.39 L0 679.65 L25.95 712.25 L125.89 712.25 L152 680.99 L127.87 648.39 L25 648.39 Z" class="st13"/>
			<text x="48.68" y="675.37" class="st10" v:langID="2052"><v:paragraph v:horizAlign="1"/><v:tabList/>Check if <v:newlineChar/><tspan
						x="34.18" dy="1.214em" class="st12">t &#60; Max_FEs</tspan></text>		</g>
		<g id="shape1191-168" v:mID="1191" v:groupContext="shape" transform="translate(445.95,-151.954)">
			<title>工作表.1191</title>
			<desc>Boundary control for Mutant</desc>
			<v:textBlock v:margins="rect(4,4,4,4)" v:tabSpace="42.5197"/>
			<v:textRect cx="76" cy="680.319" width="152" height="63.8545"/>
			<g id="shadow1191-169" v:groupContext="shadow" v:shadowOffsetX="-8.48528" v:shadowOffsetY="-8.48528" v:shadowType="1"
					transform="matrix(1,0,0,1,-8.48528,8.48528)" class="st7">
				<rect x="0" y="648.392" width="152" height="63.8545" rx="5.66929" ry="5.66929" class="st8"/>
			</g>
			<rect x="0" y="648.392" width="152" height="63.8545" rx="5.66929" ry="5.66929" class="st9"/>
			<text x="8.46" y="675.52" class="st10" v:langID="2052"><v:paragraph v:horizAlign="1"/><v:tabList/>Boundary control for <tspan
						x="52.89" dy="1.2em" class="st11">Mutant</tspan></text>		</g>
		<g id="shape1192-175" v:mID="1192" v:groupContext="shape" transform="translate(837.345,75.8733) rotate(90)">
			<title>工作表.1192</title>
			<path d="M0 712.25 L17.17 712.25" class="st17"/>
		</g>
		<g id="shape1193-181" v:mID="1193" v:groupContext="shape" transform="translate(837.345,163.442) rotate(90)">
			<title>工作表.1193</title>
			<path d="M0 712.25 L21.66 712.25" class="st17"/>
		</g>
		<g id="shape1194-186" v:mID="1194" v:groupContext="shape" transform="translate(125.099,-428.406)">
			<title>工作表.1194</title>
		</g>
		<g id="shape1195-187" v:mID="1195" v:groupContext="shape" transform="translate(837.345,269.666) rotate(90)">
			<title>工作表.1195</title>
			<path d="M0 712.25 L26.6 712.25" class="st18"/>
		</g>
		<g id="shape1196-193" v:mID="1196" v:groupContext="shape" transform="translate(837.345,365.844) rotate(90)">
			<title>工作表.1196</title>
			<path d="M0 712.25 L21.72 712.25" class="st17"/>
		</g>
		<g id="shape1197-198" v:mID="1197" v:groupContext="shape" transform="translate(837.345,457.962) rotate(90)">
			<title>工作表.1197</title>
			<path d="M0 712.25 L31.94 712.25" class="st17"/>
		</g>
		<g id="shape1198-203" v:mID="1198" v:groupContext="shape" transform="translate(185.186,-183.742) rotate(-0.807852)">
			<title>工作表.1198</title>
			<path d="M0 712.25 L45.76 712.25" class="st17"/>
		</g>
		<g id="shape1199-208" v:mID="1199" v:groupContext="shape" transform="translate(247.525,1339.15) rotate(180)">
			<title>工作表.1199</title>
			<path d="M6.18 712.25 L6.54 712.25 L53.03 712.25" class="st19"/>
		</g>
		<g id="shape1200-214" v:mID="1200" v:groupContext="shape" transform="translate(399.525,-83.9984)">
			<title>工作表.1200</title>
			<path d="M0 712.25 L39.89 712.25" class="st17"/>
		</g>
		<g id="shape1201-219" v:mID="1201" v:groupContext="shape" transform="translate(-388.721,496.438) rotate(-90)">
			<title>工作表.1201</title>
			<path d="M0 712.25 L28.35 712.25" class="st17"/>
		</g>
		<g id="shape1202-224" v:mID="1202" v:groupContext="shape" transform="translate(-388.721,397.897) rotate(-90)">
			<title>工作表.1202</title>
			<path d="M0 712.25 L15.11 712.25" class="st17"/>
		</g>
		<g id="shape1203-229" v:mID="1203" v:groupContext="shape" transform="translate(-388.721,312.186) rotate(-90)">
			<title>工作表.1203</title>
			<path d="M0 712.25 L28.82 712.25" class="st17"/>
		</g>
		<g id="shape1204-234" v:mID="1204" v:groupContext="shape" transform="translate(-388.721,212.973) rotate(-90)">
			<title>工作表.1204</title>
			<path d="M0 712.25 L32.4 712.25" class="st17"/>
		</g>
		<g id="shape1205-239" v:mID="1205" v:groupContext="shape" transform="translate(125.099,-116.595)">
			<title>工作表.1205</title>
			<path d="M198.43 676.89 L198.43 679.05 L198.43 692.08 L0 692.08 L0 705.71" class="st20"/>
		</g>
		<g id="shape1206-245" v:mID="1206" v:groupContext="shape" transform="translate(399.525,-367.463)">
			<title>工作表.1206</title>
			<path d="M0 712.25 L23.21 712.25" class="st22"/>
		</g>
		<g id="shape1207-248" v:mID="1207" v:groupContext="shape" transform="translate(1134.98,344.783) rotate(90)">
			<title>工作表.1207</title>
			<path d="M0 712.25 L230.15 712.25" class="st23"/>
		</g>
		<g id="shape1208-254" v:mID="1208" v:groupContext="shape" transform="translate(1234.2,468.092) rotate(90)">
			<title>工作表.1208</title>
			<path d="M6.18 712.25 L6.54 712.25 L28.35 712.25" class="st19"/>
		</g>
		<g id="shape1209-259" v:mID="1209" v:groupContext="shape" transform="translate(1234.2,368.879) rotate(90)">
			<title>工作表.1209</title>
			<path d="M6.18 712.25 L6.54 712.25 L35.36 712.25" class="st19"/>
		</g>
		<g id="shape1210-264" v:mID="1210" v:groupContext="shape" transform="translate(1234.2,269.666) rotate(90)">
			<title>工作表.1210</title>
			<path d="M6.18 712.25 L6.54 712.25 L35.36 712.25" class="st19"/>
		</g>
		<g id="shape1211-269" v:mID="1211" v:groupContext="shape" transform="translate(1234.2,174.035) rotate(90)">
			<title>工作表.1211</title>
			<path d="M6.18 712.25 L6.54 712.25 L31.78 712.25" class="st19"/>
		</g>
		<g id="shape1212-274" v:mID="1212" v:groupContext="shape" transform="translate(1234.2,75.8733) rotate(90)">
			<title>工作表.1212</title>
			<path d="M6.18 712.25 L6.54 712.25 L33.64 712.25" class="st4"/>
		</g>
		<g id="shape1213-279" v:mID="1213" v:groupContext="shape" transform="translate(305.125,-404.155)">
			<title>工作表.1213</title>
			<desc>Yes</desc>
			<v:textBlock v:margins="rect(4,4,4,4)" v:tabSpace="42.5197"/>
			<v:textRect cx="18.3998" cy="702.246" width="36.8" height="20"/>
			<rect x="0" y="692.246" width="36.7996" height="20" class="st24"/>
			<text x="5.96" y="707.05" class="st10" v:langID="2052"><v:paragraph v:horizAlign="1"/><v:tabList/>Yes</text>		</g>
		<g id="shape1214-282" v:mID="1214" v:groupContext="shape" transform="translate(305.125,-219.389)">
			<title>工作表.1214</title>
			<desc>Yes</desc>
			<v:textBlock v:margins="rect(4,4,4,4)" v:tabSpace="42.5197"/>
			<v:textRect cx="18.3998" cy="702.246" width="36.8" height="20"/>
			<rect x="0" y="692.246" width="36.7996" height="20" class="st24"/>
			<text x="5.96" y="707.05" class="st10" v:langID="2052"><v:paragraph v:horizAlign="1"/><v:tabList/>Yes</text>		</g>
		<g id="shape1215-285" v:mID="1215" v:groupContext="shape" transform="translate(506.411,-606.832)">
			<title>工作表.1215</title>
			<desc>No</desc>
			<v:textBlock v:margins="rect(4,4,4,4)" v:tabSpace="42.5197"/>
			<v:textRect cx="15.5387" cy="702.246" width="31.08" height="20"/>
			<rect x="0" y="692.246" width="31.0775" height="20" class="st24"/>
			<text x="5.76" y="707.05" class="st10" v:langID="2052"><v:paragraph v:horizAlign="1"/><v:tabList/>No</text>		</g>
		<g id="shape1216-288" v:mID="1216" v:groupContext="shape" transform="translate(612.709,-308.138)">
			<title>工作表.1216</title>
			<desc>Yes</desc>
			<v:textBlock v:margins="rect(4,4,4,4)" v:tabSpace="42.5197"/>
			<v:textRect cx="18.3998" cy="702.246" width="36.8" height="20"/>
			<rect x="0" y="692.246" width="36.7996" height="20" class="st24"/>
			<text x="5.96" y="707.05" class="st10" v:langID="2052"><v:paragraph v:horizAlign="1"/><v:tabList/>Yes</text>		</g>
		<g id="shape1217-291" v:mID="1217" v:groupContext="shape" transform="translate(436.91,-122.385)">
			<title>工作表.1217</title>
			<desc>No</desc>
			<v:textBlock v:margins="rect(4,4,4,4)" v:tabSpace="42.5197"/>
			<v:textRect cx="15.5387" cy="702.246" width="31.08" height="20"/>
			<rect x="0" y="692.246" width="31.0775" height="20" class="st24"/>
			<text x="5.76" y="707.05" class="st10" v:langID="2052"><v:paragraph v:horizAlign="1"/><v:tabList/>No</text>		</g>
		<g id="shape1218-294" v:mID="1218" v:groupContext="shape" transform="translate(208.773,-124.274)">
			<title>工作表.1218</title>
			<desc>No</desc>
			<v:textBlock v:margins="rect(4,4,4,4)" v:tabSpace="42.5197"/>
			<v:textRect cx="15.5387" cy="702.246" width="31.08" height="20"/>
			<rect x="0" y="692.246" width="31.0775" height="20" class="st24"/>
			<text x="5.76" y="707.05" class="st10" v:langID="2052"><v:paragraph v:horizAlign="1"/><v:tabList/>No</text>		</g>
		<g id="shape1219-297" v:mID="1219" v:groupContext="shape" transform="translate(305.125,-507.619)">
			<title>工作表.1219</title>
			<desc>Yes</desc>
			<v:textBlock v:margins="rect(4,4,4,4)" v:tabSpace="42.5197"/>
			<v:textRect cx="18.3998" cy="702.246" width="36.8" height="20"/>
			<rect x="0" y="692.246" width="36.7996" height="20" class="st24"/>
			<text x="5.96" y="707.05" class="st10" v:langID="2052"><v:paragraph v:horizAlign="1"/><v:tabList/>Yes</text>		</g>
		<g id="shape1220-300" v:mID="1220" v:groupContext="shape" transform="translate(210.139,-509.115)">
			<title>工作表.1220</title>
			<desc>No</desc>
			<v:textBlock v:margins="rect(4,4,4,4)" v:tabSpace="42.5197"/>
			<v:textRect cx="15.5387" cy="702.246" width="31.08" height="20"/>
			<rect x="0" y="692.246" width="31.0775" height="20" class="st24"/>
			<text x="5.76" y="707.05" class="st10" v:langID="2052"><v:paragraph v:horizAlign="1"/><v:tabList/>No</text>		</g>
		<g id="shape1221-303" v:mID="1221" v:groupContext="shape" transform="translate(402.47,-74.6682)">
			<title>工作表.1221</title>
			<desc>Yes</desc>
			<v:textBlock v:margins="rect(4,4,4,4)" v:tabSpace="42.5197"/>
			<v:textRect cx="16.5118" cy="702.246" width="33.03" height="20"/>
			<rect x="0" y="692.246" width="33.0236" height="20" class="st24"/>
			<text x="4.07" y="707.05" class="st10" v:langID="2052"><v:paragraph v:horizAlign="1"/><v:tabList/>Yes</text>		</g>
		<g id="shape1222-306" v:mID="1222" v:groupContext="shape" transform="translate(632.265,-555.966)">
			<title>工作表.1222</title>
			<path d="M0 712.25 L0 699.49 L0 698.74" class="st25"/>
		</g>
		<g id="shape1223-309" v:mID="1223" v:groupContext="shape" transform="translate(604.155,-570.139)">
			<title>工作表.1223</title>
		</g>
		<g id="shape1224-310" v:mID="1224" v:groupContext="shape" transform="translate(632.265,855.023) rotate(180)">
			<title>工作表.1224</title>
			<path d="M0 712.25 L34.31 712.25" class="st25"/>
		</g>
		<g id="shape1225-313" v:mID="1225" v:groupContext="shape" transform="translate(40.06,-20.2175)">
			<title>工作表.1225</title>
			<path d="M396.85 502.48 L581.1 502.48 L581.1 712.25 L0 712.25 L0 502.48 L170.08 502.48 L170.08 34.77 L396.85 34.77 L396.85
						 502.48 Z" class="st26"/>
		</g>
		<g id="shape1226-315" v:mID="1226" v:groupContext="shape" transform="translate(188.879,-26.0128)">
			<title>工作表.1226</title>
			<desc>Elite Leading Mutation Strategy</desc>
			<v:textBlock v:margins="rect(4,4,4,4)" v:tabSpace="42.5197"/>
			<v:textRect cx="140.315" cy="702.246" width="280.63" height="20"/>
			<rect x="0" y="692.246" width="280.63" height="20" class="st15"/>
			<text x="15.57" y="707.65" class="st27" v:langID="2052"><v:paragraph v:horizAlign="1"/><v:tabList/>Elite Leading Mutation Strategy</text>		</g>
	</g>
</svg>
