<?xml version="1.0" encoding="UTF-8" standalone="no"?>
<!DOCTYPE svg PUBLIC "-//W3C//DTD SVG 1.1//EN" "http://www.w3.org/Graphics/SVG/1.1/DTD/svg11.dtd">
<!-- 由 Microsoft Visio, SVG Export 生成 WrapperFeatureSelection.svg 页-1 -->
<svg xmlns="http://www.w3.org/2000/svg" xmlns:xlink="http://www.w3.org/1999/xlink" xmlns:ev="http://www.w3.org/2001/xml-events"
		xmlns:v="http://schemas.microsoft.com/visio/2003/SVGExtensions/" width="9.3805in" height="7.88443in"
		viewBox="0 0 675.396 567.679" xml:space="preserve" color-interpolation-filters="sRGB" class="st28">
	<v:documentProperties v:langID="2052" v:metric="true" v:viewMarkup="false"/>

	<style type="text/css">
	<![CDATA[
		.st1 {fill:#ffffff;stroke:none;stroke-linecap:round;stroke-linejoin:round;stroke-width:0.75}
		.st2 {marker-end:url(#mrkr4-10);stroke:#000000;stroke-linecap:round;stroke-linejoin:round;stroke-width:0.75}
		.st3 {fill:#000000;fill-opacity:1;stroke:#000000;stroke-opacity:1;stroke-width:0.18796992481203}
		.st4 {visibility:visible}
		.st5 {fill:#000000;fill-opacity:0.4;filter:url(#filter_2.6666667461395);stroke:#000000;stroke-linecap:round;stroke-linejoin:round;stroke-opacity:0.4}
		.st6 {fill:#fcebdd;stroke:#000000;stroke-linecap:round;stroke-linejoin:round;stroke-width:0.75}
		.st7 {fill:#dbeef3;stroke:#000000;stroke-linecap:round;stroke-linejoin:round;stroke-width:0.75}
		.st8 {fill:#000000;font-family:Times New Roman;font-size:1.33333em}
		.st9 {fill:#ffffff;stroke:#000000;stroke-dasharray:5.25,3.75;stroke-linecap:round;stroke-linejoin:round;stroke-width:0.75}
		.st10 {fill:#ffffff;stroke:#000000;stroke-linecap:round;stroke-linejoin:round;stroke-width:0.75}
		.st11 {fill:#000000;font-family:Times New Roman;font-size:0.916672em;font-style:italic;font-weight:bold}
		.st12 {baseline-shift:-32.4944%;font-size:0.649888em}
		.st13 {font-size:1em}
		.st14 {stroke:#000000;stroke-linecap:round;stroke-linejoin:round;stroke-width:0.75}
		.st15 {marker-start:url(#mrkr4-85);stroke:#000000;stroke-linecap:round;stroke-linejoin:round;stroke-width:0.75}
		.st16 {fill:#fbd7bb;stroke:#000000;stroke-linecap:round;stroke-linejoin:round;stroke-width:0.24}
		.st17 {fill:#f2dcda;stroke:none;stroke-linecap:round;stroke-linejoin:round;stroke-width:0.75}
		.st18 {fill:#000000;font-family:宋体;font-size:1.00001em}
		.st19 {fill:#f9c499;stroke:#000000;stroke-linecap:round;stroke-linejoin:round;stroke-width:0.24}
		.st20 {fill:none;stroke:none;stroke-linecap:round;stroke-linejoin:round;stroke-width:0.75}
		.st21 {fill:none;stroke:#000000;stroke-dasharray:19.25,13.75,0,13.75,0,13.75;stroke-linecap:round;stroke-linejoin:round;stroke-width:2.75}
		.st22 {fill:#000000;font-family:Times New Roman;font-size:1.5em;font-weight:bold}
		.st23 {marker-end:url(#mrkr4-160);stroke:#000000;stroke-linecap:round;stroke-linejoin:round;stroke-width:0.75}
		.st24 {fill:#000000;fill-opacity:1;stroke:#000000;stroke-opacity:1;stroke-width:0.22935779816514}
		.st25 {fill:#000000;font-family:Times New Roman;font-size:1.16666em}
		.st26 {fill:#dbeef3}
		.st27 {stroke:#ffc000;stroke-linecap:round;stroke-linejoin:round;stroke-width:0.75}
		.st28 {fill:none;fill-rule:evenodd;font-size:12px;overflow:visible;stroke-linecap:square;stroke-miterlimit:3}
	]]>
	</style>

	<defs id="Markers">
		<g id="lend4">
			<path d="M 2 1 L 0 0 L 2 -1 L 2 1 " style="stroke:none"/>
		</g>
		<marker id="mrkr4-10" class="st3" v:arrowType="4" v:arrowSize="3" v:setback="10.64" refX="-10.64" orient="auto"
				markerUnits="strokeWidth" overflow="visible">
			<use xlink:href="#lend4" transform="scale(-5.32,-5.32) "/>
		</marker>
		<marker id="mrkr4-85" class="st3" v:arrowType="4" v:arrowSize="3" v:setback="10.16" refX="10.16" orient="auto"
				markerUnits="strokeWidth" overflow="visible">
			<use xlink:href="#lend4" transform="scale(5.32) "/>
		</marker>
		<marker id="mrkr4-160" class="st24" v:arrowType="4" v:arrowSize="2" v:setback="8.72" refX="-8.72" orient="auto"
				markerUnits="strokeWidth" overflow="visible">
			<use xlink:href="#lend4" transform="scale(-4.36,-4.36) "/>
		</marker>
	</defs>
	<defs id="Filters">
		<filter id="filter_2.6666667461395">
			<feGaussianBlur stdDeviation="2.6666667461395"/>
		</filter>
	</defs>
	<g v:mID="0" v:index="1" v:groupContext="foregroundPage">
		<title>页-1</title>
		<v:pageProperties v:drawingScale="0.0393701" v:pageScale="0.0393701" v:drawingUnits="24" v:shadowOffsetX="8.50394"
				v:shadowOffsetY="-8.50394"/>
		<g id="group235-1" transform="translate(0.375,-0.375)" v:mID="235" v:groupContext="group">
			<title>工作表.235</title>
			<g id="shape190-2" v:mID="190" v:groupContext="shape">
				<title>工作表.190</title>
				<rect x="0" y="0.749987" width="674.646" height="566.929" class="st1"/>
			</g>
			<g id="group191-4" transform="translate(59.811,-31.4205)" v:mID="191" v:groupContext="group">
				<title>工作表.191</title>
				<g id="shape192-5" v:mID="192" v:groupContext="shape" transform="translate(665.191,403.509) rotate(90)">
					<title>工作表.192</title>
					<path d="M0 567.68 L37.37 567.68" class="st2"/>
				</g>
				<g id="shape193-11" v:mID="193" v:groupContext="shape" transform="translate(-2.23821E-13,-263.383)">
					<title>工作表.193</title>
					<g id="shadow193-12" v:groupContext="shadow" v:shadowOffsetX="-8.48528" v:shadowOffsetY="-8.48528"
							v:shadowType="1" transform="matrix(1,0,0,1,-8.48528,8.48528)" class="st4">
						<rect x="0" y="465.632" width="197.858" height="102.047" class="st5"/>
					</g>
					<rect x="0" y="465.632" width="197.858" height="102.047" class="st6"/>
				</g>
				<g id="shape194-16" v:mID="194" v:groupContext="shape" transform="translate(37.9843,-410.784)">
					<title>工作表.194</title>
					<desc>Scale to [-1, 1]</desc>
					<v:textBlock v:margins="rect(4,4,4,4)" v:tabSpace="42.5197"/>
					<v:textRect cx="58.5354" cy="549.254" width="117.08" height="36.8504"/>
					<g id="shadow194-17" v:groupContext="shadow" v:shadowOffsetX="-8.48528" v:shadowOffsetY="-8.48528"
							v:shadowType="1" transform="matrix(1,0,0,1,-8.48528,8.48528)" class="st4">
						<rect x="0" y="530.829" width="117.071" height="36.8504" class="st5"/>
					</g>
					<rect x="0" y="530.829" width="117.071" height="36.8504" class="st7"/>
					<text x="11" y="554.05" class="st8" v:langID="2052"><v:paragraph v:horizAlign="1"/><v:tabList/>Scale to [-1, 1]</text>				</g>
				<g id="shape195-22" v:mID="195" v:groupContext="shape" transform="translate(11.6221,-340.343)">
					<title>工作表.195</title>
					<path d="M0 567.68 L146.83 567.68 L146.83 549.25 L0 549.25 L0 567.68 Z" class="st9"/>
				</g>
				<g id="shape196-24" v:mID="196" v:groupContext="shape" transform="translate(16.1575,-335.099)">
					<title>工作表.196</title>
					<rect x="0" y="549.254" width="146.835" height="18.4252" class="st10"/>
				</g>
				<g id="shape197-26" v:mID="197" v:groupContext="shape" transform="translate(21.5433,-329.997)">
					<title>工作表.197</title>
					<rect x="0" y="549.254" width="146.835" height="18.4252" class="st10"/>
				</g>
				<g id="shape198-28" v:mID="198" v:groupContext="shape" transform="translate(27.2126,-324.611)">
					<title>工作表.198</title>
					<rect x="0" y="549.254" width="146.835" height="18.4252" class="st10"/>
				</g>
				<g id="shape199-30" v:mID="199" v:groupContext="shape" transform="translate(32.8819,-318.658)">
					<title>工作表.199</title>
					<desc>Training set10 Test set10</desc>
					<v:textBlock v:margins="rect(4,4,4,4)" v:tabSpace="42.5197"/>
					<v:textRect cx="73.4173" cy="558.467" width="146.84" height="18.4252"/>
					<rect x="0" y="549.254" width="146.835" height="18.4252" class="st10"/>
					<text x="11.83" y="562.07" class="st11" v:langID="2052"><v:paragraph v:horizAlign="1"/><v:tabList/>Training set<tspan
								dy="-0.279em" class="st12" v:baseFontSize="11">10           </tspan><tspan dy="0.181em"
								class="st13">Test set</tspan><tspan dy="-0.279em" class="st12" v:baseFontSize="11">10</tspan>   </text>				</g>
				<g id="shape200-36" v:mID="200" v:groupContext="shape" transform="translate(685.317,230.596) rotate(90)">
					<title>工作表.200</title>
					<path d="M0 567.68 L18.43 567.68" class="st14"/>
				</g>
				<g id="shape201-39" v:mID="201" v:groupContext="shape" transform="translate(679.931,224.643) rotate(90)">
					<title>工作表.201</title>
					<path d="M0 567.68 L5.95 567.68" class="st14"/>
				</g>
				<g id="shape202-42" v:mID="202" v:groupContext="shape" transform="translate(675.396,219.257) rotate(90)">
					<title>工作表.202</title>
					<path d="M0 567.68 L5.39 567.68" class="st14"/>
				</g>
				<g id="shape203-45" v:mID="203" v:groupContext="shape" transform="translate(669.726,214.155) rotate(90)">
					<title>工作表.203</title>
					<path d="M0 567.68 L5.1 567.68" class="st14"/>
				</g>
				<g id="shape204-48" v:mID="204" v:groupContext="shape" transform="translate(664.057,208.911) rotate(90)">
					<title>工作表.204</title>
					<path d="M0 567.68 L5.24 567.68" class="st14"/>
				</g>
				<g id="shape205-51" v:mID="205" v:groupContext="shape" transform="translate(12.3307,-293.146)">
					<title>工作表.205</title>
					<path d="M0 567.68 L146.83 567.68 L146.83 549.25 L0 549.25 L0 567.68 Z" class="st9"/>
				</g>
				<g id="shape206-53" v:mID="206" v:groupContext="shape" transform="translate(16.8661,-287.902)">
					<title>工作表.206</title>
					<rect x="0" y="549.254" width="146.835" height="18.4252" class="st10"/>
				</g>
				<g id="shape207-55" v:mID="207" v:groupContext="shape" transform="translate(22.252,-282.8)">
					<title>工作表.207</title>
					<rect x="0" y="549.254" width="146.835" height="18.4252" class="st10"/>
				</g>
				<g id="shape208-57" v:mID="208" v:groupContext="shape" transform="translate(27.9213,-277.414)">
					<title>工作表.208</title>
					<rect x="0" y="549.254" width="146.835" height="18.4252" class="st10"/>
				</g>
				<g id="shape209-59" v:mID="209" v:groupContext="shape" transform="translate(33.5906,-271.461)">
					<title>工作表.209</title>
					<desc>Training set10 Test set10</desc>
					<v:textBlock v:margins="rect(4,4,4,4)" v:tabSpace="42.5197"/>
					<v:textRect cx="73.4173" cy="558.467" width="146.84" height="18.4252"/>
					<rect x="0" y="549.254" width="146.835" height="18.4252" class="st10"/>
					<text x="11.83" y="562.07" class="st11" v:langID="2052"><v:paragraph v:horizAlign="1"/><v:tabList/>Training set<tspan
								dy="-0.279em" class="st12" v:baseFontSize="11">10           </tspan><tspan dy="0.181em"
								class="st13">Test set</tspan><tspan dy="-0.279em" class="st12" v:baseFontSize="11">10</tspan>   </text>				</g>
				<g id="shape210-65" v:mID="210" v:groupContext="shape" transform="translate(686.026,277.793) rotate(90)">
					<title>工作表.210</title>
					<path d="M0 567.68 L18.43 567.68" class="st14"/>
				</g>
				<g id="shape211-68" v:mID="211" v:groupContext="shape" transform="translate(680.64,271.84) rotate(90)">
					<title>工作表.211</title>
					<path d="M0 567.68 L5.95 567.68" class="st14"/>
				</g>
				<g id="shape212-71" v:mID="212" v:groupContext="shape" transform="translate(676.104,266.454) rotate(90)">
					<title>工作表.212</title>
					<path d="M0 567.68 L5.39 567.68" class="st14"/>
				</g>
				<g id="shape213-74" v:mID="213" v:groupContext="shape" transform="translate(670.435,261.352) rotate(90)">
					<title>工作表.213</title>
					<path d="M0 567.68 L5.1 567.68" class="st14"/>
				</g>
				<g id="shape214-77" v:mID="214" v:groupContext="shape" transform="translate(664.766,256.107) rotate(90)">
					<title>工作表.214</title>
					<path d="M0 567.68 L5.24 567.68" class="st14"/>
				</g>
				<g id="shape215-80" v:mID="215" v:groupContext="shape" transform="translate(312.169,824.495) rotate(180)">
					<title>工作表.215</title>
					<path d="M7.62 567.68 L7.98 567.68 L114.31 567.68" class="st15"/>
				</g>
				<g id="shape216-86" v:mID="216" v:groupContext="shape" transform="translate(312.378,-164.17)">
					<title>工作表.216</title>
					<desc>Use KNN classifier to evaluate the selected features</desc>
					<v:textBlock v:margins="rect(4,4,4,4)" v:tabSpace="42.5197"/>
					<v:textRect cx="113.386" cy="543.585" width="226.78" height="48.189"/>
					<g id="shadow216-87" v:groupContext="shadow" v:shadowOffsetX="-8.48528" v:shadowOffsetY="-8.48528"
							v:shadowType="1" transform="matrix(1,0,0,1,-8.48528,8.48528)" class="st4">
						<rect x="0" y="519.49" width="226.772" height="48.189" class="st5"/>
					</g>
					<rect x="0" y="519.49" width="226.772" height="48.189" class="st7"/>
					<text x="13.87" y="538.78" class="st8" v:langID="2052"><v:paragraph v:horizAlign="1"/><v:tabList/>Use KNN classifier to evaluate <tspan
								x="48.53" dy="1.2em" class="st13">the selected features</tspan></text>				</g>
				<g id="shape217-93" v:mID="217" v:groupContext="shape" transform="translate(312.169,-286.769)">
					<title>工作表.217</title>
					<desc>Perform the Search Algorithm (bIBSA)</desc>
					<v:textBlock v:margins="rect(4,4,4,4)" v:tabSpace="42.5197"/>
					<v:textRect cx="113.386" cy="543.585" width="226.78" height="48.189"/>
					<g id="shadow217-94" v:groupContext="shadow" v:shadowOffsetX="-8.48528" v:shadowOffsetY="-8.48528"
							v:shadowType="1" transform="matrix(1,0,0,1,-8.48528,8.48528)" class="st4">
						<rect x="0" y="519.49" width="226.772" height="48.189" class="st5"/>
					</g>
					<rect x="0" y="519.49" width="226.772" height="48.189" class="st7"/>
					<text x="16.3" y="538.78" class="st8" v:langID="2052"><v:paragraph v:horizAlign="1"/><v:tabList/>Perform the Search Algorithm<v:newlineChar/><tspan
								x="85.83" dy="1.2em" class="st13">(bIBSA)</tspan></text>				</g>
				<g id="shape218-100" v:mID="218" v:groupContext="shape" transform="translate(3.9685,-164.17)">
					<title>六边形</title>
					<desc>Stopping criterion</desc>
					<v:userDefs>
						<v:ud v:nameU="visVersion" v:val="VT0(15):26"/>
					</v:userDefs>
					<v:textBlock v:margins="rect(4,4,4,4)" v:tabSpace="42.5197"/>
					<v:textRect cx="97.0866" cy="543.585" width="194.18" height="48.189"/>
					<g id="shadow218-101" v:groupContext="shadow" v:shadowOffsetX="-8.48528" v:shadowOffsetY="-8.48528"
							v:shadowType="1" transform="matrix(1,0,0,1,-8.48528,8.48528)" class="st4">
						<path d="M153.14 519.49 L41.03 519.49 L-15.02 543.58 L41.03 567.68 L153.14 567.68 L209.19 543.58 L153.14
									 519.49 Z" class="st5"/>
					</g>
					<path d="M153.14 519.49 L41.03 519.49 L-15.02 543.58 L41.03 567.68 L153.14 567.68 L209.19 543.58 L153.14 519.49
								 Z" class="st16"/>
					<text x="39.09" y="548.38" class="st8" v:langID="2052"><v:paragraph v:horizAlign="1"/><v:tabList/>Stopping criterion</text>				</g>
				<g id="shape219-106" v:mID="219" v:groupContext="shape" transform="translate(38.9764,-81.9654)">
					<title>工作表.219</title>
					<desc>KNN Validation</desc>
					<v:textBlock v:margins="rect(4,4,4,4)" v:tabSpace="42.5197"/>
					<v:textRect cx="58.5354" cy="549.254" width="117.08" height="36.8504"/>
					<g id="shadow219-107" v:groupContext="shadow" v:shadowOffsetX="-8.48528" v:shadowOffsetY="-8.48528"
							v:shadowType="1" transform="matrix(1,0,0,1,-8.48528,8.48528)" class="st4">
						<rect x="0" y="530.829" width="117.071" height="36.8504" class="st5"/>
					</g>
					<rect x="0" y="530.829" width="117.071" height="36.8504" class="st7"/>
					<text x="5.43" y="554.05" class="st8" v:langID="2052"><v:paragraph v:horizAlign="1"/><v:tabList/>KNN Validation</text>				</g>
				<g id="shape220-112" v:mID="220" v:groupContext="shape" transform="translate(665.191,88.8615) rotate(90)">
					<title>工作表.220</title>
					<path d="M0 567.68 L23.2 567.68" class="st2"/>
				</g>
				<g id="shape221-117" v:mID="221" v:groupContext="shape" transform="translate(79.9213,-132.832)">
					<title>工作表.221</title>
					<desc>Yes</desc>
					<v:textBlock v:margins="rect(4,4,4,4)" v:tabSpace="42.5197"/>
					<v:textRect cx="17.5906" cy="557.679" width="35.19" height="20"/>
					<rect x="0" y="547.679" width="35.1811" height="20" class="st17"/>
					<text x="8.59" y="561.28" class="st18" v:langID="2052"><v:paragraph v:horizAlign="1"/><v:tabList/>Yes</text>				</g>
				<g id="group222-120" transform="translate(56.5177,0)" v:mID="222" v:groupContext="group">
					<title>工作表.222</title>
					<g id="shape223-121" v:mID="223" v:groupContext="shape" transform="translate(567.679,531.068) rotate(90)">
						<title>圆角矩形.3</title>
						<v:userDefs>
							<v:ud v:nameU="WatchCH1" v:val="VT0(0.19685039):1"/>
							<v:ud v:nameU="MaxRoundess" v:val="VT0(0.39370078740157):1"/>
							<v:ud v:nameU="visVersion" v:val="VT0(15):26"/>
							<v:ud v:nameU="MaxRoundess" v:prompt="" v:val="VT0(0.25424323847496):1"/>
						</v:userDefs>
						<g id="shadow223-122" v:groupContext="shadow" v:shadowOffsetX="-8.48528" v:shadowOffsetY="-8.48528"
								v:shadowType="1" transform="matrix(1,0,0,1,8.48528,8.48528)" class="st4">
							<path d="M0 553.51 L0 499.86 A18.3055 14.1732 0 1 1 36.61 499.86 L36.61 553.51 A18.3055 14.1732 0 0 1
										 0 553.51 Z" class="st5"/>
						</g>
						<path d="M0 553.51 L0 499.86 A18.3055 14.1732 0 1 1 36.61 499.86 L36.61 553.51 A18.3055 14.1732 0 0 1 0 553.51
									 Z" class="st19"/>
					</g>
					<g id="shape224-126" v:mID="224" v:groupContext="shape" transform="translate(5.56111,-8.30551)">
						<title>工作表.224</title>
						<desc>End</desc>
						<v:textBlock v:margins="rect(4,4,4,4)" v:tabSpace="42.5197"/>
						<v:textRect cx="35.4331" cy="557.679" width="70.87" height="20"/>
						<rect x="0" y="547.679" width="70.8661" height="20" class="st20"/>
						<text x="22.55" y="562.48" class="st8" v:langID="2052"><v:paragraph v:horizAlign="1"/><v:tabList/>End</text>					</g>
				</g>
				<g id="shape225-129" v:mID="225" v:groupContext="shape" transform="translate(267.591,-124.485)">
					<title>工作表.225</title>
					<path d="M0 567.68 L310.39 567.68 L310.39 326.73 L0 326.73 L0 567.68 Z" class="st21"/>
				</g>
				<g id="shape226-131" v:mID="226" v:groupContext="shape" transform="translate(267.591,-69.2095)">
					<title>工作表.226</title>
					<desc>Feature Set Generation And Evaluation</desc>
					<v:textBlock v:margins="rect(4,4,4,4)" v:tabSpace="42.5197"/>
					<v:textRect cx="152.984" cy="557.679" width="305.97" height="20"/>
					<rect x="0" y="547.679" width="305.969" height="20" class="st20"/>
					<text x="44.25" y="552.28" class="st22" v:langID="2052"><v:paragraph v:horizAlign="1"/><v:tabList/>Feature Set Generation And <tspan
								x="110.97" dy="1.2em" class="st13">Evaluation</tspan></text>				</g>
				<g id="shape227-135" v:mID="227" v:groupContext="shape" transform="translate(665.191,156.895) rotate(90)">
					<title>工作表.227</title>
					<path d="M0 567.68 L37.37 567.68" class="st2"/>
				</g>
				<g id="shape228-140" v:mID="228" v:groupContext="shape" transform="translate(998.262,280.911) rotate(90)">
					<title>工作表.228</title>
					<path d="M0 567.68 L66.43 567.68" class="st2"/>
				</g>
				<g id="shape229-145" v:mID="229" v:groupContext="shape" transform="translate(312.378,947.094) rotate(180)">
					<title>工作表.229</title>
					<path d="M0 567.68 L91.24 567.68" class="st2"/>
				</g>
				<g id="shape230-150" v:mID="230" v:groupContext="shape" transform="translate(665.191,485.714) rotate(90)">
					<title>工作表.230</title>
					<path d="M0 567.68 L37.37 567.68" class="st2"/>
				</g>
				<g id="shape231-155" v:mID="231" v:groupContext="shape" transform="translate(97.5118,-212.359)">
					<title>工作表.231</title>
					<path d="M0 567.68 L0 542.17 L141.73 542.17 L141.73 475.72" class="st23"/>
				</g>
				<g id="shape232-161" v:mID="232" v:groupContext="shape" transform="translate(225.921,-251.611)">
					<title>工作表.232</title>
					<desc>No</desc>
					<v:textBlock v:margins="rect(4,4,4,4)" v:tabSpace="42.5197"/>
					<v:textRect cx="12.7717" cy="557.679" width="25.55" height="20"/>
					<rect x="0" y="547.679" width="25.5433" height="20" class="st17"/>
					<text x="6.77" y="561.28" class="st18" v:langID="2052"><v:paragraph v:horizAlign="1"/><v:tabList/>No</text>				</g>
				<g id="shape233-164" v:mID="233" v:groupContext="shape" transform="translate(47.1969,-475.981)">
					<title>工作表.233</title>
					<desc>DATASET</desc>
					<v:textBlock v:margins="rect(4,4,4,4)" v:tabSpace="42.5197"/>
					<v:textRect cx="49.3228" cy="552.154" width="98.65" height="31.0507"/>
					<rect x="0" y="536.628" width="98.6457" height="31.0507" class="st20"/>
					<text x="17.44" y="556.35" class="st25" v:langID="2052"><v:paragraph v:horizAlign="1"/><v:tabList/>DATASET</text>				</g>
				<g id="shape234-167" v:mID="234" v:groupContext="shape" transform="translate(59.6693,-478.816)">
					<title>工作表.234</title>
					<path d="M0.04 560.54 L0.04 560.53 L0.04 560.54 Z" class="st26"/>
					<path d="M0.19 560.97 L0.04 560.53 L0 537.6 L0.01 536.83" class="st27"/>
					<path d="M0.04 560.54 L0.04 560.53" class="st27"/>
					<path d="" class="st27"/>
					<path d="M73.67 536.83 L73.66 537.31 A36.8309 7.2576 0 0 1 0.01 537.2 L0.01 537.2 A36.8309 7.2576 0 1 1 73.66
								 537.31 L73.7 560.6 A36.8309 7.2576 0 0 1 0.05 560.5" class="st27"/>
				</g>
			</g>
		</g>
	</g>
</svg>
